<?xml version="1.0" encoding="utf-8"?>
<!-- Generator: Adobe Illustrator 27.5.0, SVG Export Plug-In . SVG Version: 6.00 Build 0)  -->
<svg version="1.1" xmlns="http://www.w3.org/2000/svg" xmlns:xlink="http://www.w3.org/1999/xlink" x="0px" y="0px"
	 viewBox="0 0 1122 1122" style="enable-background:new 0 0 1122 1122;" xml:space="preserve">
<g id="BG">
	<rect style="fill:#FFFFFF;" width="1122" height="1122"/>
</g>
<g id="Object">
	<g>
		<path style="fill:#FFFFFF;" d="M118.33,305.257c0,0,22.156,56.972,60.137,72.798c37.981,15.826,103.394,44.312,118.164,66.467
			c14.77,22.156,36.926,40.091,24.266,86.513l10.509,13.694c0,0,101.411-99.875,202.823-90.656
			c101.411,9.219,117.907,49.81,142.025,106.015c0,0,5.911-2.655,8.722-2.936c0,0,6.185-29.236,38.794-37.951
			c32.609-8.715,84.615,19.116,127.907,19.959c43.292,0.843,86.021-2.249,124.534-23.895c38.513-21.646,55.942-34.858,55.942-34.858
			s7.871,13.493,8.433,36.264c0.562,22.77-12.369,63.813-25.019,77.307c-12.65,13.493-31.485,24.457-31.485,24.457
			s-1.124,12.65-20.24,26.144c-19.116,13.493-55.38,30.923-100.077,8.433c0,0-21.927,20.24-50.038,10.12
			c-28.112-10.12-44.416-32.89-44.416-55.661c0,0-29.798,13.775-46.946,16.305c-17.148,2.53-43.01-7.309-43.01-7.309
			s-10.964,42.448-36.826,83.491c-25.863,41.043-97.547,121.16-200.716,115.538c-103.169-5.622-130.156-56.504-130.156-56.504
			s-26.144-28.111-34.858-60.44c-8.715-32.328,4.779-89.394,25.019-115.257c0,0-24.738,3.092-40.762-4.217
			c-16.024-7.309-22.77-12.931-24.457-25.862c0,0-34.296,3.373-50.601-8.434c-16.305-11.807-26.987-24.738-29.236-34.296
			c0,0-29.798-17.429-37.107-34.577c-7.309-17.148-3.655-35.42-3.655-35.42s-34.015-27.549-34.858-64.656
			C80.299,338.726,100.701,306.365,118.33,305.257z"/>
		<g>
			<g>
				<g>
					<path d="M650.29,507.1c-19.131-26.718-49.311-44.369-81.038-51.666c-38.397-8.831-78.895-2.371-115.563,10.608
						c-35.516,12.571-69.778,30.633-99.405,53.986c-29.082,22.924-53.495,51.895-68.044,86.154
						c-13.982,32.923-19.723,60.605-9.52,95.262c8.959,30.434,28.664,58.131,55.99,74.617c6.548,3.95,13.719,6.973,20.981,9.334
						c0.26,0.085,0.483-0.319,0.202-0.431c-29.55-11.799-53.098-36.206-65.971-65.078c-13.941-31.266-13.736-56.768-4.487-89.492
						c19.999-70.759,80.593-119.07,145.221-148.151c35.821-16.118,75.09-27.211,114.69-24.548
						c31.968,2.149,63.606,14.53,87.019,36.705c11.197,10.605,20.303,23.509,25.864,37.934c6.945,18.012,8.51,37.544,6.651,56.651
						c-3.374,34.682-17.378,68.603-36.861,97.288c-19.156,28.205-44.52,52.311-73.996,69.512
						c-31.897,18.614-66.524,31.642-103.433,32.899c-8.8,0.299-21.894,1.257-30.672,0.579c-2.469-0.191-0.978,2.393,1.447,2.604
						c37.385,3.263,76.641-5.459,111.249-19.911c33.707-14.076,63.38-35.661,87.025-63.499
						c22.806-26.849,39.665-59.268,47.949-93.544C674.391,578.475,672.74,538.452,650.29,507.1z"/>
				</g>
				<g>
					<path d="M620.849,504.752c-20.711-22.805-51.818-33.348-81.996-34.283c-35.517-1.1-71.487,8.968-104.346,21.693
						c-31.023,12.015-60.61,28.809-84.766,51.892c-22.288,21.297-40.305,48.196-48.516,78.122
						c-8.237,30.018-6.484,63.176,6.556,91.594c3.055,6.658,7.167,12.936,11.534,18.805c0.19,0.255,0.682,0.043,0.487-0.257
						c-16.756-25.854-22.674-57.777-18.547-88.113c4.112-30.227,18.374-58.166,37.851-81.352
						c20.448-24.342,46.881-42.94,75.401-56.665c14.686-7.067,29.942-12.88,45.498-17.722c16.845-5.243,34.087-9.602,51.619-11.771
						c31.101-3.848,64.265,0.173,90.307,18.798c11.696,8.365,21.321,19.401,27.334,32.513c6.502,14.181,8.522,29.974,7.846,45.452
						c-1.306,29.882-12.802,59.571-28.04,85.025c-14.755,24.646-33.59,47.027-56.442,64.53
						c-24.636,18.869-52.845,32.424-83.185,39.115c-31.5,6.948-64.623,7.142-96.165,0.338c-7.506-1.619-14.961-3.615-22.311-5.832
						c-1.811-0.546-2.625,1.985-0.804,2.626c61.097,21.504,133.764,11.589,188.539-22.333
						c50.927-31.539,90.337-83.86,101.575-143.242C646.186,562.452,642.999,529.142,620.849,504.752z"/>
				</g>
				<g>
					<path d="M557.802,550.544c-10.073-15.603-26.448-25.841-44.316-30.194c-19.196-4.677-39.264-2.667-57.811,3.756
						c-19.546,6.769-37.53,17.831-53.743,30.56c-15.774,12.385-30.065,27.458-38.612,45.798c-8.415,18.057-11.21,39.64-3.825,58.541
						c6.162,15.772,19.552,29.08,35.983,33.79c3.942,1.13,8.002,1.683,12.098,1.747c1.337,0.021,1.33-1.845,0-1.888
						c-17.342-0.553-32.671-11.558-41.179-26.319c-9.652-16.748-9.22-37.391-3.12-55.278c6.251-18.331,18.687-33.74,33.091-46.39
						c14.516-12.748,31.094-23.778,48.72-31.725c17.327-7.812,36.369-12.262,55.422-10.272c17.514,1.829,34.811,9.145,46.717,22.392
						c11.521,12.818,16.982,30.378,16.918,47.428c-0.067,17.546-6.233,34.308-16.435,48.475
						c-22.785,31.641-61.245,46.504-98.846,50.616c-4.959,0.542-9.924,1.046-14.886,1.549c-2.168,0.22-2.283,3.147,0,3.159
						c21.218,0.108,43.084-4.083,62.88-11.679c18.399-7.06,35.338-17.904,48.48-32.695c12.209-13.741,20.903-30.456,23.428-48.774
						C571.254,585.089,567.743,565.942,557.802,550.544z"/>
				</g>
				<g>
					<path d="M501.151,578.227c-9.879-19.187-33.389-22.777-52.378-16.817c-19.358,6.076-39.979,19.348-48.594,38.375
						c-4.61,10.181-5.809,22.223-1.074,32.577c4.063,8.883,11.646,15.527,21.158,17.887c0.29,0.072,0.433-0.344,0.129-0.42
						c-8.816-2.187-15.705-9.258-19.034-17.554c-3.488-8.691-2.803-18.555,0.491-27.19c6.861-17.985,24.129-30.004,41.246-37.263
						c17.07-7.239,40.365-8.266,51.891,9.021c9.783,14.671,6.575,33.658-3.99,46.915c-13.971,17.531-36.763,23.158-58.111,24.778
						c-2.695,0.204-2.781,3.959,0,3.885c21.444-0.573,43.999-6.464,59.095-22.617C504.95,615.929,510.137,595.68,501.151,578.227z"
						/>
				</g>
				<g>
					<path d="M453.165,585.56c-5.027-0.692-9.954,0.965-14.444,3.102c-4.368,2.079-8.791,5.048-10.83,9.613
						c-1.682,3.766-1.784,8.558,1.248,11.674c1.683,1.73,3.942,2.742,6.237,2.673c-0.242,0.909,0.519,2.11,1.724,2.227
						c9.353,0.903,21.24-1.798,25.773-10.905C467.008,595.638,462.395,586.831,453.165,585.56z M456.195,606.156
						c-5.329,4.891-12.935,4.357-19.578,5.483c-0.24,0.041-0.437,0.113-0.607,0.204c-3.502-0.225-6.207-3.097-6.565-6.743
						c-0.393-3.998,1.978-7.683,4.982-10.112c5.278-4.269,15.063-8.147,21.561-4.765
						C462.493,593.608,460.817,601.915,456.195,606.156z"/>
				</g>
				<g>
					<path d="M348.612,797.215c-9.999-7.458-19.318-15.771-27.749-24.969c-8.572-9.351-16.915-19.328-23.419-30.253
						c-0.071-0.12-0.285-0.021-0.209,0.11c6.324,10.879,12.89,21.371,21.158,30.909c8.388,9.676,17.854,18.429,28.08,26.128
						C347.864,800.189,350.154,798.365,348.612,797.215z"/>
				</g>
				<g>
					<path d="M643.875,701.448c-20.809,32.099-47.628,59.671-80.447,79.546c-35.677,21.606-76.423,33.034-118.053,34.203
						c-24.813,0.697-48.85-3.137-73.054-8.177c-0.137-0.029-0.268,0.171-0.109,0.232c20.186,7.781,42.364,10.768,63.908,11.36
						c22.126,0.608,44.415-2.016,65.85-7.517c38.65-9.92,74.513-29.812,103.776-56.892c16.159-14.954,30.464-31.901,41.578-50.94
						C648.58,701.11,645.122,699.524,643.875,701.448z"/>
				</g>
				<g>
					<path d="M681.076,588.72c-1.501-29.78-12.161-59.018-30.882-82.315c-10.16-12.643-22.3-23.506-36.554-31.305
						c-0.157-0.086-0.389,0.126-0.22,0.257c22.641,17.41,41.448,39.295,52.947,65.601c12.192,27.889,14.641,58.917,8.149,88.588
						c-1.839,8.406-4.605,16.632-8.037,24.519c-3.569,8.201-8.306,15.568-12.61,23.359c-0.76,1.377,1.265,2.194,2.125,1.118
						c4.941-6.184,8.57-13.679,11.789-20.877c3.224-7.208,5.845-14.662,7.927-22.277
						C679.883,620.127,681.874,604.548,681.076,588.72z"/>
				</g>
				<g>
					<path d="M369.709,757.167c-0.025,0-0.026,0.036,0,0.036C369.734,757.203,369.734,757.167,369.709,757.167z"/>
				</g>
				<g>
					<path d="M419.901,670.577c-5.848,5.489-10.6,12.022-15.345,18.463c-2.408,3.269-4.837,6.525-7.223,9.81
						c-2.202,3.033-5.525,6.413-6.45,10.09c-0.562,2.234,2.169,3.014,3.674,1.925c3.125-2.261,5.126-6.484,7.242-9.665
						c2.234-3.358,4.424-6.746,6.634-10.12c4.289-6.549,8.684-13.137,11.669-20.397
						C420.151,670.569,419.973,670.509,419.901,670.577z"/>
				</g>
				<g>
					<path d="M522.117,497.796c-2.516,2.201-3.854,5.536-5.44,8.431c-1.816,3.316-3.617,6.64-5.41,9.969
						c-3.258,6.049-7.166,12.224-8.738,18.956c-0.048,0.207,0.223,0.334,0.371,0.194c5.099-4.807,8.607-11.177,12.333-17.065
						c1.915-3.026,3.824-6.055,5.718-9.095c1.813-2.911,4.388-5.947,5.043-9.36C526.414,497.637,523.74,496.376,522.117,497.796z"/>
				</g>
				<g>
					<path d="M384.456,586.554c-6.011-1.974-13.067-2.002-19.335-2.674c-3.322-0.356-6.655-0.638-9.986-0.897
						c-2.898-0.226-6-0.653-8.802,0.286c-0.2,0.067-0.229,0.28-0.058,0.398c2.417,1.664,5.533,2.064,8.364,2.614
						c3.276,0.636,6.559,1.251,9.852,1.791c6.246,1.024,13.004,2.841,19.354,2.547C386.389,590.501,386.937,587.368,384.456,586.554
						z"/>
				</g>
				<g>
					<path d="M584.667,619.478c-6.49-2.383-13.851-3.396-20.62-4.776c-6.231-1.27-13.566-3.455-19.961-2.741
						c-0.192,0.021-0.273,0.22-0.102,0.338c5.207,3.588,12.743,5,18.742,6.713c6.639,1.897,13.62,4.375,20.471,5.262
						C586.54,624.706,588.087,620.734,584.667,619.478z"/>
				</g>
				<g>
					<g>
						<path d="M324.899,512.526c0.879-22.994-6.659-45.206-21.166-63.035c-34.674-42.617-92.3-52.517-136.153-82.095
							c-21.945-14.801-41.185-35.709-47.184-62.126c-0.554-2.439-3.787-2.467-5.102-0.872c-0.149-0.229-0.479-0.387-0.735-0.229
							c-15.888,9.813-27.432,25.8-32.751,43.646c-5.153,17.289-3.863,35.839,2.536,52.616c6.565,17.213,17.427,31.639,30.808,43.424
							c-5.437,19.369,4.63,40.575,18.86,53.632c18.208,16.707,43.619,22.605,67.682,23.365c15.057,0.476,30.309-0.648,45.26-2.404
							c3.551-0.417,3.26-5.386-0.277-5.119c-24.314,1.838-48.697,4.931-72.773-0.78c-21.181-5.025-41.379-16.608-51.638-36.485
							c-5.029-9.743-7.048-20.62-6.298-31.502c14.641,12.682,32.21,22.256,50.459,28.877c24.531,8.901,50.406,13.244,76.126,17.08
							c3.485,0.52,4.754-4.383,1.215-4.898c-41.071-5.973-85.135-13.361-118.889-39.387c-26.761-20.634-47.316-53.82-41.798-88.7
							c3.304-20.885,15.132-39.462,31.769-52.323c-0.13,0.417-0.156,0.895-0.034,1.43c11.641,51.142,63.884,75.076,107.081,94.532
							c23.321,10.504,46.942,21.604,66.244,38.733c17.768,15.768,30.339,36.059,33.235,59.896
							c3.088,25.411-4.102,52.005-20.668,71.663c-0.32,0.38,0.275,0.871,0.588,0.523
							C315.962,555.694,324.064,534.364,324.899,512.526z"/>
					</g>
					<g>
						<path d="M305.482,578.213c-5.847,1.493-12.011,1.825-18.051,1.621c-10.514-0.355-21.813-1.47-31.559-5.675
							c-9.283-4.005-16.377-11.461-18.873-21.277c3.13-0.262,6.254-0.593,9.37-0.975c6.217-0.762,12.771-1.256,18.751-3.158
							c2.658-0.845,1.845-4.466-0.873-4.421c-5.394,0.09-10.732,1.323-16.064,2.085c-5.654,0.808-11.332,1.46-17.035,1.803
							c-10.65,0.641-21.498,0.25-31.865-2.459c-8.628-2.254-17.061-6.145-24.123-11.63c-7.17-5.569-11.959-12.402-16.319-20.242
							c-0.301-0.541-1.504-0.391-1.368,0.334c3.374,18.053,22.211,30.284,38.434,35.383c10.66,3.351,22.03,4.163,33.145,3.768
							c2.19-0.078,4.376-0.218,6.56-0.385c-0.29,9.276,6.188,17.413,13.683,22.197c10.401,6.638,23.515,8.204,35.568,9.077
							c5.481,0.397,11.098,0.385,16.578-0.38C302.8,582.009,304.145,580.117,305.482,578.213z"/>
					</g>
					<g>
						<path d="M319.871,533.672c5.068,2.228,7.866,7.164,9.005,12.486c0.967-1.15,1.949-2.284,2.947-3.401
							c-2.547-4.319-6.583-7.772-11.558-9.745C319.794,532.825,319.36,533.448,319.871,533.672z"/>
					</g>
				</g>
				<g>
					<g>
						<path d="M1041.23,542.662c4.148-21.189,2.325-43.294-5.9-63.299c-0.58-1.41-2.84-2.33-4.138-1.283
							c-41.655,33.589-92.687,53.78-146.032,58.149c-26.498,2.171-53.339,0.455-79.279-5.421
							c-27.082-6.134-55.69-19.426-83.926-12.574c-21.708,5.268-46.408,29.516-35.478,53.39c0.396,0.864,1.767,0.498,1.459-0.478
							c-7.368-23.352,13.932-44.929,35.415-49.803c14.059-3.19,29.036-0.645,42.805,2.734c13.802,3.387,27.27,8.002,41.143,11.12
							c50.206,11.284,103.61,7.094,151.842-10.607c25.956-9.526,50.84-22.982,72.6-40.12c12.302,33.098,6.794,71.905-13.055,100.97
							c-20.828,30.497-57.202,46.12-93.64,44.283c-20.811-1.049-39.909-8.286-57.311-19.494c-1.757-1.131-3.846,0.939-2.06,2.381
							c14.503,11.71,33.379,17.966,51.722,20.144c18.634,2.212,37.749,0.113,55.32-6.551
							C1008.711,612.551,1033.896,580.123,1041.23,542.662z"/>
					</g>
					<g>
						<path d="M984.245,621.771c-15.219,19.794-36.897,34.269-61.648,38.705c-25.269,4.529-51.237-2.371-71.409-18.133
							c-5.786-4.521-11.031-9.699-15.596-15.45c-4.624-5.825-8.063-12.177-11.63-18.663c-1.095-1.992-4.503-1.269-3.61,1.183
							c4.509,12.386,13.968,23.523,23.768,32.102c10.22,8.946,22.355,15.769,35.329,19.791c25.145,7.795,52.597,3.972,75.087-9.571
							c12.312-7.414,22.78-17.316,29.914-29.841C984.514,621.783,984.319,621.674,984.245,621.771z"/>
					</g>
					<g>
						<path d="M859.984,655.965c-2.274-0.002-4.394,1.448-6.447,2.326c-2.392,1.023-4.813,1.934-7.314,2.66
							c-4.869,1.413-9.868,2.235-14.937,2.4c-10.28,0.335-20.808-2.029-29.805-7.06c-18.127-10.136-27.367-29.284-28.76-49.402
							c-0.162-2.34-4.457-2.808-4.607-0.246c-0.979,16.81,7.52,33.685,19.662,44.948c12.851,11.92,30.635,17.207,47.948,14.896
							c4.632-0.618,9.21-1.726,13.567-3.425c3.318-1.294,9.489-3.272,10.928-6.804C860.285,656.097,860.135,655.965,859.984,655.965
							z"/>
					</g>
					<g>
						<path d="M676.674,560.401c2.897-1.714,6.086-2.899,9.441-3.357c0.291-0.04,0.194-0.401-0.065-0.406
							c-3.437-0.062-6.656,0.612-9.601,1.857C676.532,559.128,676.602,559.765,676.674,560.401z"/>
					</g>
					<g>
						<path d="M763.364,606.781c-11.093,3.556-21.435,8.977-32.73,12.063c-11.209,3.062-23.183,4.337-34.661,2.036
							c-4.138-0.83-8.312-2.342-12.252-4.41c0.294,1.612,0.586,3.224,0.879,4.837c0.028,0.153,0.026,0.295,0.04,0.443
							c11.793,5.28,25.886,6.327,38.652,4.142c7.358-1.26,14.534-3.336,21.548-5.872c7.17-2.592,14.394-5.357,21.035-9.122
							C768.411,609.458,765.68,606.039,763.364,606.781z"/>
					</g>
				</g>
				<g>
					<path d="M657.55,520.938c0,0,22.97,63.807-1.276,116.129c-24.247,52.322-74.566,118.526-146.756,139.099
						c-77.424,22.065-145.161,20.536-203.274-26.646c-1.592-1.293-3.172-2.62-4.738-3.981c0,0,19.744,38.29,44.966,53.601
						c0,0,85.201,43.386,187.292-1.279c102.091-44.665,142.928-136.547,146.756-183.765
						C684.349,566.88,657.55,520.938,657.55,520.938z"/>
				</g>
			</g>
			<g>
				<path d="M247.296,460.278c-61.113-20.414-137.375-49.179-153.389-120.072c-0.053-0.233-0.506-0.19-0.47,0.057
					c4.673,31.907,24.189,59.02,49.71,78.092c30.531,22.816,67.055,34.463,102.898,46.007
					C248.825,465.257,250.162,461.235,247.296,460.278z"/>
			</g>
			<g>
				<path d="M266.136,498.105c-24.048,5.523-47.48,7.731-71.964,3.394c-23.7-4.197-48.361-13.158-67.985-27.298
					c-0.109-0.078-0.29,0.053-0.169,0.152c19.803,16.166,41.243,27.547,66.522,32.475c24.252,4.728,51.599,4.47,75.039-4.017
					C270.832,501.633,269.455,497.342,266.136,498.105z"/>
			</g>
			<g>
				<path d="M268.222,521.581c-7.469,2.427-14.455,5.914-22.114,7.909c-7.72,2.011-15.622,3.32-23.587,3.777
					c-15.483,0.889-32.314-0.884-47.199-5.319c-0.199-0.059-0.366,0.234-0.154,0.328c15.354,6.83,30.424,10.097,47.353,9.441
					c15.462-0.599,34.378-3.503,47.514-12.267C272.143,524.044,270.767,520.753,268.222,521.581z"/>
			</g>
			<g>
				<path d="M296.535,547.875c-7.59,6.208-14.792,11.045-24.474,13.333c-9.267,2.19-18.727,1.539-27.957-0.542
					c-0.527-0.119-0.932,0.555-0.399,0.853c17.206,9.625,43.539,4.213,55.209-11.991
					C299.961,548.076,297.641,546.97,296.535,547.875z"/>
			</g>
			<g>
				<path d="M856.758,657.65c-8.207-3.222-16.827-4.538-24.854-8.499c-8.031-3.964-15.423-9.245-21.785-15.55
					c-14.218-14.089-22.219-33.218-22.792-53.15c-0.015-0.514-0.884-0.516-0.877,0c0.251,19.923,6.877,39.619,19.782,54.937
					c6.119,7.263,13.484,13.272,21.734,17.966c7.93,4.512,18.119,9.214,27.425,8.844
					C857.667,662.107,859.473,658.716,856.758,657.65z"/>
			</g>
			<g>
				<path d="M970.448,632.116c-6.81,3.573-13.014,7.655-20.344,10.237c-7.148,2.519-14.506,4.442-22.061,5.204
					c-15.324,1.546-31.219-0.937-45.122-7.653c-27.041-13.064-46.367-38.779-49.087-68.884c-0.045-0.509-0.915-0.514-0.877,0
					c2.267,30.268,19.954,60.573,47.556,74.284c14.659,7.282,31.27,10.034,47.531,8.469c15.587-1.5,33.932-6.858,45.304-18.274
					C975.284,633.555,972.647,630.962,970.448,632.116z"/>
			</g>
			<g>
				<path d="M1032.723,546.866c-5.241,4.91-9.691,10.649-14.96,15.588c-5.584,5.235-11.624,9.959-18.173,13.932
					c-12.74,7.728-26.885,12.805-41.62,15.001c-31.64,4.714-65.293-5.845-89.777-26.08c-0.6-0.496-1.586,0.251-0.958,0.863
					c23.893,23.302,57.11,34.542,90.281,30.36c15.821-1.995,31.215-7.623,44.785-15.972c12.487-7.682,26.869-18.566,33.089-32.296
					C1036.064,546.775,1033.652,545.996,1032.723,546.866z"/>
			</g>
		</g>
	</g>
</g>
</svg>
